<?xml version="1.0" ?><!DOCTYPE svg  PUBLIC '-//W3C//DTD SVG 1.1//EN'  'http://www.w3.org/Graphics/SVG/1.1/DTD/svg11.dtd'><svg height="2048px" style="shape-rendering:geometricPrecision; text-rendering:geometricPrecision; image-rendering:optimizeQuality; fill-rule:evenodd; clip-rule:evenodd" viewBox="0 0 2048 2048" width="2048px" xml:space="preserve" xmlns="http://www.w3.org/2000/svg" xmlns:xlink="http://www.w3.org/1999/xlink"><defs><style type="text/css">
   <![CDATA[
    .fil2 {fill:none}
    .fil1 {fill:#333333;fill-rule:nonzero}
    .fil0 {fill:#83C3F2;fill-rule:nonzero}
   ]]>
  </style></defs><g id="Layer_x0020_1"><path class="fil0" d="M1670.68 582.642c28.1044,-7.73386 55.3252,-17.4673 81.4241,-28.9654 5.08819,-2.88189 11.5772,-2.86063 16.774,0.603544 7.35119,4.9004 9.3378,14.8358 4.4374,22.187 -20.6847,31.0276 -44.2063,60.1914 -70.2308,87.1477 -23.961,24.8197 -50.0268,47.6894 -77.9339,68.3351l0.686221 29.3988c0.0637796,0.575197 0.0956694,1.16102 0.0956694,1.75394 0,219.372 -90.2292,456.91 -262.303,628.959 -146.659,146.635 -352.59,245.782 -612.569,245.782 -85.2402,0 -167.653,-12.261 -245.685,-35.1059 -80.4249,-23.5453 -156.005,-58.3016 -225.06,-102.426 -5.51457,-3.02362 -8.95276,-9.16182 -8.21575,-15.7996 0.97441,-8.7815 8.88544,-15.1122 17.6669,-14.1378l-0.00354331 0.0283465c11.7307,1.30158 23.3398,2.28425 34.8685,2.9315 11.2205,0.629528 22.9429,0.951969 35.2453,0.951969 67.6949,0 132.743,-11.289 193.322,-32.1047 49.3134,-16.9453 95.6446,-40.1599 138.018,-68.6977 -51.9638,-8.19922 -99.7465,-28.9004 -140.145,-58.9453 -52.2874,-38.8831 -92.2383,-93.4135 -112.93,-156.721 -1.16929,-2.78977 -1.56142,-5.94331 -0.959056,-9.1382 1.63819,-8.68347 10.0063,-14.3941 18.6898,-12.7559l-0.00708662 0.0401575c9.06851,1.71024 17.9929,2.96693 26.8158,3.78071 8.58072,0.791339 17.6575,1.18228 27.2681,1.18228 3.17126,0 6.3189,-0.0484252 9.44056,-0.140551 -45.4122,-20.4331 -85.2024,-51.215 -116.334,-89.3387 -44.8087,-54.8741 -71.7284,-124.921 -71.7284,-201.183l0 -3.60473c-0.0153543,-2.64213 0.623623,-5.32441 1.99016,-7.80355 4.26615,-7.73741 13.9984,-10.5508 21.7358,-6.28465l-0.0129921 0.0236221c19.9063,10.9748 41.0788,19.7847 63.2304,25.904 3.97441,1.09843 7.98308,2.10945 12.0225,3.03544 -23.5618,-22.8213 -43.6252,-49.317 -59.2713,-78.554 -23.9197,-44.7 -37.5107,-95.7166 -37.5107,-149.707 0,-28.6512 3.80315,-56.5335 10.9583,-83.0871 7.20119,-26.7225 17.8547,-52.1244 31.4918,-75.6331 0.986221,-2.10945 2.45197,-4.03583 4.37717,-5.6067 6.84686,-5.58544 16.9264,-4.5626 22.5118,2.28425l-12.398 10.1138 12.3744 -10.0618c74.3847,91.1918 167.312,166.44 273.078,220.027 96.6166,48.9496 203.922,79.819 317.564,88.2579 -0.788977,-4.89213 -1.46811,-9.79371 -2.03032,-14.7036 -1.3937,-12.1677 -2.12953,-24.4477 -2.12953,-36.8339 0,-87.7312 35.6032,-167.201 93.1371,-224.734 57.5339,-57.5339 137.003,-93.1371 224.734,-93.1371 44.6469,0 87.3757,9.34371 126.195,26.1366 37.4835,16.2154 71.1768,39.3496 99.2965,67.6914 30.2788,-6.35079 59.6776,-15.0331 88.0418,-25.839 31.3618,-11.948 61.3749,-26.4673 89.8489,-43.278 3.94016,-2.65748 9.0189,-3.53977 13.8898,-1.96181 8.40591,2.72362 13.011,11.7484 10.2874,20.1543l-0.0472441 -0.0153543c-12.013,37.05 -30.4559,71.093 -54.0426,100.759 -9.71221,12.2162 -20.3079,23.7024 -31.6937,34.363 7.30749,-1.70788 14.5512,-3.55158 21.7229,-5.5252z"/><path class="fil1" d="M1714.55 602.465c-11.6799,3.98032 -23.5181,7.62875 -35.4981,10.9252 -29.5807,8.14134 -59.8619,14.1555 -90.5788,17.7957l0.0011811 0.0141732c-8.77442,1.03937 -16.7315,-5.23111 -17.7709,-14.0055 -0.817323,-6.90355 2.89134,-13.3004 8.78268,-16.2213 29.2122,-17.648 54.9815,-40.4032 76.1634,-67.0453 12.3685,-15.5563 23.1591,-32.4177 32.1449,-50.3433 -18.0921,9.02009 -36.6744,17.1851 -55.7079,24.4358 -32.5725,12.4087 -66.5623,22.1788 -101.771,29.028l0.00590552 0.0271654c-5.98347,1.16339 -11.8358,-1.17165 -15.4453,-5.58071 -26.315,-27.8646 -58.3359,-50.4685 -94.128,-65.9528 -34.7315,-15.0248 -73.1753,-23.3847 -113.569,-23.3847 -78.8977,0 -150.367,32.0197 -202.109,83.7615 -51.7418,51.7418 -83.7615,123.212 -83.7615,202.109 0,11.4071 0.649607,22.4717 1.87914,33.2079 1.26378,11.0445 3.08977,21.7158 5.40709,32.0374l-15.5622 3.49961 15.6106 -3.50551c1.93583,8.62087 -3.48425,17.1803 -12.1051,19.1162 -1.89095,0.425197 -3.77835,0.493701 -5.59489,0.255118 -125.347,-6.50079 -243.587,-39.215 -349.414,-92.8312 -102.62,-51.9922 -193.604,-123.65 -268.118,-210.117 -7.42678,15.4701 -13.4976,31.7776 -18.0697,48.743 -6.4193,23.8229 -9.8315,48.9343 -9.8315,74.8382 0,48.73 12.1866,94.6265 33.6343,134.707 22.2638,41.6032 54.5221,77.0516 93.5056,103.003l-8.81221 13.3122 8.86654 -13.3181c7.35473,4.89685 9.34843,14.8299 4.45158,22.1847 -3.44528,5.17559 -9.38623,7.69607 -15.1665,7.02993 -24.9792,-0.762993 -49.1351,-4.56733 -72.2197,-10.9441 -15.724,-4.3441 -30.9366,-9.86457 -45.5658,-16.415 4.67126,59.9008 27.7748,114.619 63.5989,158.491 41.0788,50.3067 98.8489,86.3977 164.706,99.7442l-3.1252 15.6248 3.17835 -15.6815c8.65985,1.75512 14.2583,10.2 12.5032,18.8599 -1.3311,6.57048 -6.51378,11.3764 -12.7193,12.548 -12.8539,3.36024 -26.2795,5.95985 -40.1032,7.73977 -14.178,1.82599 -28.3418,2.76851 -42.2953,2.76851 -9.71812,0 -19.7457,-0.473622 -30.1429,-1.43268l-2.56654 -0.246851c20.0705,47.0162 52.3382,87.5528 92.8312,117.665 46.3111,34.441 103.361,55.2544 165.201,56.5512l-0.312992 15.9378 0.335433 -15.9969c8.83465,0.184252 15.8457,7.49764 15.6614,16.3323 -0.114567,5.51103 -3.00473,10.3122 -7.3063,13.0996 -53.7567,41.8465 -114.481,75.0556 -180.076,97.5946 -63.8812,21.9508 -132.423,33.8551 -203.697,33.8551 -2.11181,0 -4.23426,-0.0106299 -6.36733,-0.0330709 50.7721,27.2315 104.56,49.4138 160.741,65.8607 74.9717,21.9484 154.396,33.7288 236.81,33.7288 250.586,0 448.879,-95.3635 589.943,-236.406 165.924,-165.899 252.927,-394.889 252.927,-606.334 0,-0.334252 0.011811,-0.664961 0.0318898,-0.993308l-0.881103 -37.7504 -0.0590552 0.0011811c-0.13937,-5.97402 3.01536,-11.2618 7.80591,-14.1213 28.4162,-20.5382 54.9355,-43.5579 79.2544,-68.7485 12.0331,-12.463 23.5335,-25.4847 34.4681,-39.0248zm-43.8721 -19.8236c28.1044,-7.73386 55.3252,-17.4673 81.4241,-28.9654 5.08819,-2.88189 11.5772,-2.86063 16.774,0.603544 7.35119,4.9004 9.3378,14.8358 4.4374,22.187 -20.6847,31.0276 -44.2063,60.1914 -70.2308,87.1477 -23.961,24.8197 -50.0268,47.6894 -77.9339,68.3351l0.686221 29.3988c0.0637796,0.575197 0.0956694,1.16102 0.0956694,1.75394 0,219.372 -90.2292,456.91 -262.303,628.959 -146.659,146.635 -352.59,245.782 -612.569,245.782 -85.2402,0 -167.653,-12.261 -245.685,-35.1059 -80.4249,-23.5453 -156.005,-58.3016 -225.06,-102.426 -5.51457,-3.02362 -8.95276,-9.16182 -8.21575,-15.7996 0.97441,-8.7815 8.88544,-15.1122 17.6669,-14.1378l-0.00354331 0.0283465c11.7307,1.30158 23.3398,2.28425 34.8685,2.9315 11.2205,0.629528 22.9429,0.951969 35.2453,0.951969 67.6949,0 132.743,-11.289 193.322,-32.1047 49.3134,-16.9453 95.6446,-40.1599 138.018,-68.6977 -51.9638,-8.19922 -99.7465,-28.9004 -140.145,-58.9453 -52.2874,-38.8831 -92.2383,-93.4135 -112.93,-156.721 -1.16929,-2.78977 -1.56142,-5.94331 -0.959056,-9.1382 1.63819,-8.68347 10.0063,-14.3941 18.6898,-12.7559l-0.00708662 0.0401575c9.06851,1.71024 17.9929,2.96693 26.8158,3.78071 8.58072,0.791339 17.6575,1.18228 27.2681,1.18228 3.17126,0 6.3189,-0.0484252 9.44056,-0.140551 -45.4122,-20.4331 -85.2024,-51.215 -116.334,-89.3387 -44.8087,-54.8741 -71.7284,-124.921 -71.7284,-201.183l0 -3.60473c-0.0153543,-2.64213 0.623623,-5.32441 1.99016,-7.80355 4.26615,-7.73741 13.9984,-10.5508 21.7358,-6.28465l-0.0129921 0.0236221c19.9063,10.9748 41.0788,19.7847 63.2304,25.904 3.97441,1.09843 7.98308,2.10945 12.0225,3.03544 -23.5618,-22.8213 -43.6252,-49.317 -59.2713,-78.554 -23.9197,-44.7 -37.5107,-95.7166 -37.5107,-149.707 0,-28.6512 3.80315,-56.5335 10.9583,-83.0871 7.20119,-26.7225 17.8547,-52.1244 31.4918,-75.6331 0.986221,-2.10945 2.45197,-4.03583 4.37717,-5.6067 6.84686,-5.58544 16.9264,-4.5626 22.5118,2.28425l-12.398 10.1138 12.3744 -10.0618c74.3847,91.1918 167.312,166.44 273.078,220.027 96.6166,48.9496 203.922,79.819 317.564,88.2579 -0.788977,-4.89213 -1.46811,-9.79371 -2.03032,-14.7036 -1.3937,-12.1677 -2.12953,-24.4477 -2.12953,-36.8339 0,-87.7312 35.6032,-167.201 93.1371,-224.734 57.5339,-57.5339 137.003,-93.1371 224.734,-93.1371 44.6469,0 87.3757,9.34371 126.195,26.1366 37.4835,16.2154 71.1768,39.3496 99.2965,67.6914 30.2788,-6.35079 59.6776,-15.0331 88.0418,-25.839 31.3618,-11.948 61.3749,-26.4673 89.8489,-43.278 3.94016,-2.65748 9.0189,-3.53977 13.8898,-1.96181 8.40591,2.72362 13.011,11.7484 10.2874,20.1543l-0.0472441 -0.0153543c-12.013,37.05 -30.4559,71.093 -54.0426,100.759 -9.71221,12.2162 -20.3079,23.7024 -31.6937,34.363 7.30749,-1.70788 14.5512,-3.55158 21.7229,-5.5252z"/></g><rect class="fil2" height="2048" width="2048"/></svg>